<?xml version="1.0" encoding="UTF-8"?>
<svg id="Calque_2" data-name="Calque 2" xmlns="http://www.w3.org/2000/svg" viewBox="0 0 107.37 113.01">
  <defs>
    <style>
      .cls-1 {
        font-size: 18.79px;
      }

      .cls-1, .cls-2, .cls-3 {
        fill: #0b4915;
      }

      .cls-1, .cls-3 {
        font-family: ComicSansMS-Bold, 'Comic Sans MS';
        font-weight: 700;
      }

      .cls-2 {
        stroke-width: 0px;
      }

      .cls-3 {
        font-size: 17.22px;
      }
    </style>
  </defs>
  <g id="logo-field4u">
    <g>
      <path class="cls-2" d="m83.69,36.26c-.41.9-.75,1.98-.76,2.85.39,3.76-.31,9.96-4.41,14.12-4.84,4.95-10.09,9.57-15.01,14.47-1.24,1.09-2.98,3.26-4.64,2.12-4.23-3.74,3.14-7.65,5.32-10.35,4.83-5.6-4.94-9.31-9.35-6.8-6.99,2.45-10.03,6.98-10.21,14.29.04,2.32-4.31,4.23-4.35.98.49-4.63-.51-10.13,3.24-13.64,3.4-3.36,6.82-6.69,10.29-9.96,6.66-5.39,15.22-4.77,19.31-12.61"/>
      <path class="cls-2" d="m37.6,61.58c0,3.15-1.44,6.79.74,9.5,2.43,2.97,6.8,1.54,8.21-.79,2.08-3.01.67-7.06,2.59-10.03,2.84-3.19,8.53-7.45,12.05-2.93.13.17,0,.68-.17.89-1.51,1.64-3.21,3.1-4.73,4.73-5.63,7.72,3.64,15.81,11.64,4.86.1.04.19.08.29.12,5.98,15.09-20.11,29.35-28.56,15.83-1.52-3.69,1.56-6.78-.11-8.77-1.11-1.31-2.92-.52-5.32-2.7-4.09-3.41,1.17-8.91,3.36-10.7Zm15.26,24.32c2.74-2.7-2.05-2.61-3.74-2.75-1-.2-2.38-.34-2.66.95.12,2.57,4.6,1.83,6.4,1.8Zm-9.49-4.75c-1.87.88-.06,2.71,1.31,2,2.24-.93.2-2.84-1.31-2Z"/>
      <path class="cls-2" d="m51.21,42.16c-4.42.41-13.38,4.59-15.51,7.47-2.24,3.22-4.86,6.24-6.9,9.56-.98,2.82,2.19,2.93,3.79,1.56,2.96-2.41,5-5.74,7.66-8.44,1.93-1.51,3.9-3.12,5.9-4.82,1.96-1.67,3.82-3.33,5.58-4.96.17-.14.17-.21.16-.25-.05-.16-.55-.13-.69-.12Z"/>
      <g>
        <path class="cls-2" d="m33.67,74.14c-.53.2-1.8-.19-1.95-.35-.96-.52-2.42-1.2-5.51-1.49-.45-.04-1.16-.02-1.3.5.83,1.59,5.21,1.68,6.89,2.64-3.79,3.17-9.12.71-11.17-3.35-.29-.42-.26-.84.23-1.13,4.52-3.17,10.24-1.75,12.8,3.18Z"/>
        <path class="cls-2" d="m34.71,76.2c1.11-.2,3.21-1.15,3.51.51.14.82-.08,1.08-1.04,1.32-2.51.45-4.95,1.21-6.99,2.81-.4.28-.64.22-.86-.19-2.02-2.97,3.39-3.9,5.38-4.45Z"/>
      </g>
      <text class="cls-1" transform="translate(19.52 95.37) rotate(34.3)"><tspan x="0" y="0">f</tspan></text>
      <text class="cls-3" transform="translate(28.74 101.3) rotate(25.12)"><tspan x="0" y="0">i</tspan></text>
      <text class="cls-3" transform="translate(34.37 104.03) rotate(15.83)"><tspan x="0" y="0">e</tspan></text>
      <text class="cls-3" transform="translate(45.05 106.73) rotate(6.66)"><tspan x="0" y="0">l</tspan></text>
      <text class="cls-3" transform="translate(51.18 107.55) rotate(-2.68)"><tspan x="0" y="0">d</tspan></text>
      <text class="cls-3" transform="translate(63.31 106.77) rotate(-15.83)"><tspan x="0" y="0">4</tspan></text>
      <text class="cls-3" transform="translate(75.62 103.11) rotate(-30.72)"><tspan x="0" y="0">U</tspan></text>
    </g>
  </g>
</svg>