<?xml version="1.0" encoding="UTF-8"?>
<svg id="Calque_2" data-name="Calque 2" xmlns="http://www.w3.org/2000/svg" viewBox="0 0 148.66 53.07">
  <defs>
    <style>
      .cls-1 {
        font-size: 28.02px;
      }

      .cls-2 {
        font-size: 25.68px;
      }

      .cls-3 {
        font-family: ComicSansMS-Bold, 'Comic Sans MS';
        font-weight: 700;
      }

      .cls-3, .cls-4 {
        fill: #0b4915;
      }

      .cls-4 {
        stroke-width: 0px;
      }
    </style>
  </defs>
  <g id="logo-field4u">
    <g>
      <g>
        <path class="cls-4" d="m58.43,4.19c-.38.83-.69,1.83-.7,2.63.36,3.47-.28,9.2-4.07,13.04-4.47,4.57-9.32,8.85-13.87,13.37-1.15,1-2.76,3.01-4.29,1.96-3.91-3.45,2.9-7.07,4.92-9.57,4.47-5.17-4.56-8.6-8.64-6.28-6.46,2.26-9.27,6.45-9.44,13.21.03,2.15-3.98,3.91-4.02.91.45-4.28-.47-9.36,2.99-12.6,3.14-3.1,6.3-6.18,9.51-9.2,6.15-4.98,14.06-4.41,17.85-11.65"/>
        <path class="cls-4" d="m15.84,27.59c0,2.91-1.33,6.27.68,8.77,2.25,2.75,6.28,1.42,7.59-.73,1.93-2.78.62-6.52,2.4-9.27,2.62-2.94,7.89-6.88,11.13-2.7.12.15,0,.63-.16.82-1.39,1.51-2.97,2.86-4.37,4.37-5.2,7.13,3.37,14.61,10.75,4.49.09.04.18.07.27.11,5.53,13.94-18.58,27.11-26.39,14.63-1.41-3.41,1.44-6.27-.1-8.1-1.02-1.21-2.7-.48-4.91-2.5-3.78-3.15,1.08-8.23,3.11-9.89Zm14.1,22.47c2.53-2.5-1.89-2.41-3.46-2.55-.92-.19-2.2-.31-2.46.88.11,2.37,4.25,1.69,5.92,1.66Zm-8.77-4.39c-1.73.81-.05,2.5,1.21,1.85,2.07-.86.18-2.63-1.21-1.85Z"/>
        <path class="cls-4" d="m28.42,9.64c-4.09.37-12.36,4.25-14.33,6.9-2.07,2.97-4.49,5.76-6.38,8.84-.91,2.6,2.02,2.7,3.51,1.44,2.74-2.22,4.62-5.3,7.08-7.8,1.78-1.39,3.6-2.88,5.45-4.46,1.81-1.54,3.53-3.08,5.16-4.58.15-.13.16-.2.15-.23-.04-.14-.51-.12-.63-.11Z"/>
        <g>
          <path class="cls-4" d="m12.21,39.19c-.49.18-1.67-.17-1.8-.32-.89-.48-2.24-1.11-5.09-1.38-.42-.03-1.07-.02-1.21.46.77,1.47,4.81,1.55,6.37,2.44-3.5,2.93-8.42.66-10.32-3.1-.27-.39-.24-.77.21-1.05,4.18-2.93,9.46-1.62,11.83,2.94Z"/>
          <path class="cls-4" d="m13.17,41.09c1.03-.18,2.97-1.06,3.24.47.13.75-.07,1-.96,1.22-2.32.42-4.57,1.12-6.46,2.6-.37.26-.6.2-.79-.17-1.87-2.74,3.13-3.61,4.97-4.11Z"/>
        </g>
      </g>
      <text class="cls-3" transform="translate(56.14 41.79)"><tspan class="cls-1" x="0" y="0">f</tspan><tspan class="cls-2" x="14.24" y="0">ield4U</tspan></text>
    </g>
  </g>
</svg>