<?xml version="1.0" encoding="UTF-8"?>
<svg id="Calque_2" data-name="Calque 2" xmlns="http://www.w3.org/2000/svg" viewBox="0 0 32.92 29.9">
  <defs>
    <style>
      .cls-1 {
        fill: #0b4915;
        stroke-width: 0px;
      }
    </style>
  </defs>
  <g id="logo-field4u">
    <g>
      <path class="cls-1" d="m32.92,2.36c-.22.47-.39,1.03-.4,1.48.2,1.96-.16,5.18-2.29,7.35-2.52,2.58-5.25,4.98-7.81,7.53-.65.57-1.55,1.7-2.42,1.1-2.2-1.95,1.63-3.98,2.77-5.39,2.52-2.92-2.57-4.85-4.87-3.54-3.64,1.28-5.22,3.63-5.32,7.44.02,1.21-2.24,2.2-2.26.51.25-2.41-.26-5.27,1.69-7.1,1.77-1.75,3.55-3.48,5.36-5.19,3.47-2.81,7.92-2.48,10.06-6.56"/>
      <path class="cls-1" d="m8.93,15.54c0,1.64-.75,3.53.38,4.94,1.27,1.55,3.54.8,4.27-.41,1.08-1.57.35-3.68,1.35-5.22,1.48-1.66,4.44-3.88,6.27-1.52.07.09,0,.35-.09.46-.78.85-1.67,1.61-2.46,2.46-2.93,4.02,1.9,8.23,6.06,2.53.05.02.1.04.15.06,3.11,7.86-10.47,15.28-14.87,8.24-.79-1.92.81-3.53-.06-4.56-.58-.68-1.52-.27-2.77-1.41-2.13-1.77.61-4.64,1.75-5.57Zm7.94,12.66c1.42-1.41-1.07-1.36-1.95-1.43-.52-.11-1.24-.18-1.39.5.06,1.34,2.39.95,3.33.94Zm-4.94-2.47c-.97.46-.03,1.41.68,1.04,1.17-.49.1-1.48-.68-1.04Z"/>
      <path class="cls-1" d="m16.01,5.43c-2.3.21-6.97,2.39-8.07,3.89-1.16,1.67-2.53,3.25-3.59,4.98-.51,1.47,1.14,1.52,1.98.81,1.54-1.25,2.6-2.99,3.99-4.4,1-.79,2.03-1.62,3.07-2.51,1.02-.87,1.99-1.73,2.91-2.58.09-.07.09-.11.08-.13-.02-.08-.29-.07-.36-.06Z"/>
      <g>
        <path class="cls-1" d="m6.88,22.08c-.28.1-.94-.1-1.02-.18-.5-.27-1.26-.63-2.87-.78-.24-.02-.6,0-.68.26.43.83,2.71.87,3.59,1.38-1.97,1.65-4.75.37-5.81-1.74-.15-.22-.13-.43.12-.59,2.36-1.65,5.33-.91,6.67,1.65Z"/>
        <path class="cls-1" d="m7.42,23.15c.58-.1,1.67-.6,1.83.26.07.43-.04.56-.54.69-1.31.24-2.58.63-3.64,1.46-.21.14-.34.11-.45-.1-1.05-1.55,1.76-2.03,2.8-2.31Z"/>
      </g>
    </g>
  </g>
</svg>