<?xml version="1.0" encoding="UTF-8"?>
<svg id="Calque_2" data-name="Calque 2" xmlns="http://www.w3.org/2000/svg" viewBox="0 0 102.97 33.34">
  <defs>
    <style>
      .cls-1 {
        fill: #68572e;
      }

      .cls-1, .cls-2 {
        stroke-width: 0px;
      }

      .cls-2 {
        fill: #ffd766;
      }
    </style>
  </defs>
  <g id="logo-field4u">
    <g>
      <path class="cls-2" d="m36.67,27.84c-.22,0-.43-.09-.59-.25s-.25-.37-.25-.59c0-.64,0-1.57.01-2.78,0-1.21.01-2.31.01-3.29s0-1.85-.02-2.7c-.02-.07-.02-.14-.02-.21l.02-.23c-.03-.78-.07-1.52-.11-2.23l-.02-.39c-.02-.24-.03-.53-.05-.85-.03-.25-.05-.56-.07-.89-.03-.56-.05-.99-.05-1.3,0-.22,0-.41.03-.54,0-.04,0-.14.03-.24.06-.23.17-.39.33-.52.04-.04.1-.08.17-.11l.05-.05.53-.02h.64c.2,0,.84,0,1.93-.02,1.81-.01,2.89-.02,3.22-.02.5,0,.84.34.84.84s-.34.84-.84.84c-.33,0-1.4,0-3.21.02-1.09.02-1.74.02-1.94.02h-.09c0,.28.02.62.04,1.02.01.28.04.56.07.84.02.35.03.63.05.87.02.26.02.4.02.42.04.54.06,1.13.08,1.76,1.22.06,2.8.09,4.71.09.5,0,.84.34.84.84s-.34.84-.84.84c-1.87,0-3.43-.03-4.65-.08.01.59.01,1.68,0,3.78-.02,2.81-.02,4.23-.02,4.28,0,.22-.09.43-.25.59s-.37.25-.59.25Z"/>
      <path class="cls-2" d="m46.83,27.79c-.47-.02-.83-.05-1.13-.1-.57-.11-.95-.33-1.15-.68-.24-.43-.38-1.14-.43-2.25-.03-.72-.02-1.73.05-3.01.01-.44.04-.96.07-1.55l.07-1.57c.01-.33.02-.7.02-1.13s-.01-.71-.04-.92c-.04-.21.02-.45.18-.63.14-.17.32-.28.54-.32.23-.04.46.02.64.17.17.14.28.32.32.53v.02c.04.26.05.63.05,1.11s0,.87-.02,1.23l-.07,1.6c-.03.75-.05,1.26-.07,1.53-.04,1.23-.06,2.2-.04,2.88.03.81.1,1.17.16,1.33.02,0,.04,0,.07.01.18.02.47.04.83.06.19,0,.53,0,.99-.02.58-.02.76,0,.86,0,.21.03.39.13.53.29.16.18.23.41.19.66-.03.22-.13.4-.29.54-.18.16-.42.22-.66.19-.09-.01-.28,0-.58,0-.5.02-.85.02-1.07.02Z"/>
      <path class="cls-2" d="m45.26,15.16c-.5,0-.84-.34-.84-.84s.34-.84.84-.84.84.34.84.84-.34.84-.84.84Z"/>
      <path class="cls-2" d="m53.32,27.92c-.34,0-.63-.02-.89-.04-.68-.08-1.14-.27-1.42-.58-.51-.54-.89-1.42-1.14-2.67-.22-1.11-.32-2.29-.28-3.48.05-1.29.22-2.43.52-3.39.38-1.19.96-1.96,1.72-2.27.86-.35,1.44-.13,1.79.13.37.26.63.7.78,1.28.12.5.17,1.21.15,2.21-.05,2.94-.6,5.34-1.61,7.13.28.02.62.01,1.02,0,1.03-.04,1.84-.13,2.4-.26.24-.04.46,0,.65.13.18.12.3.3.35.5.06.23.01.47-.12.66-.12.17-.28.29-.47.35-.71.16-1.58.25-2.73.3-.26.01-.49.02-.71.02Zm-.68-10.94s-.06.02-.13.06c-.17.07-.49.33-.8,1.25-.24.78-.39,1.75-.43,2.89-.03,1.12.05,2.17.24,3.12.05.26.11.5.18.72.74-1.5,1.13-3.5,1.18-5.94.02-1.06-.04-1.56-.1-1.79-.05-.18-.11-.27-.14-.31Z"/>
      <path class="cls-2" d="m63.55,27.82c-.98,0-1.36-.08-1.55-.14-.4-.11-.78-.27-1.12-.47-.23.14-.48.25-.76.32-.39.11-.7.17-.96.18-.22,0-.53.01-.93.01-.5,0-.84-.34-.84-.84s.34-.84.84-.84c.6,0,1.02-.05,1.31-.11-.45-.67-.78-1.5-.98-2.48-.1-.53-.16-1.11-.2-1.73-.04-.62-.06-1.28-.07-1.99,0-.69-.02-1.18-.03-1.46-.06-1.12,0-2.41.21-3.83.13-.93.3-1.66.53-2.23.35-.89.86-1.41,1.51-1.54.37-.06,1.03-.01,1.52.89.19.37.35.85.48,1.48.19.82.31,1.69.35,2.58.12,2.25.15,4.08.09,5.43-.1,2.19-.4,3.79-.93,4.85.15.07.31.13.47.19.06.02.36.06,1.41.04.17,0,.76-.02,1.77-.07h0c.25,0,.45.08.61.22.17.15.27.37.27.61,0,.22-.08.42-.22.58-.16.18-.37.27-.6.27-1.02.05-1.63.07-1.8.07-.13,0-.26,0-.38,0Zm2.15-1.07h0,0,0Zm-5.06-14.11c-.02.05-.05.11-.08.19-.18.45-.33,1.07-.42,1.84-.19,1.33-.26,2.51-.2,3.51.02.34.03.86.04,1.56,0,.68.03,1.3.07,1.86.04.55.1,1.06.19,1.52.11.59.27,1.09.49,1.5.29-.85.47-2.08.55-3.67.06-1.3.03-3.06-.09-5.24-.04-.79-.15-1.58-.31-2.34-.07-.29-.14-.54-.22-.75Z"/>
      <path class="cls-2" d="m68.62,27.82c-.35,0-.7-.08-1.03-.24-.68-.33-1.22-.98-1.62-1.92-.39-.98-.54-2.26-.42-3.81.11-1.51.41-2.86.91-4.01.64-1.51,1.49-2.3,2.53-2.35.61-.05,1.22.19,1.81.69,0-.3.01-.61.02-.95.01-.83.03-1.5.04-2.02.02-.51.02-.88.02-1.12,0-.5.34-.84.84-.84s.84.34.84.84c0,.32-.02,1.23-.06,2.74-.04,1.43-.06,2.59-.08,3.5.1.22.1.46,0,.68-.01.24-.02.47-.02.7,0,2.03,0,3.34.02,3.93.09.18.1.38.03.58h0c.03.56.06,1.03.11,1.4.02.21.05.35.07.45,0,0,.02,0,.03,0,.23.04.54.06.93.06.25,0,.6-.01,1.06-.04.49-.03.78-.05.88-.05.25,0,.46.09.62.27.14.16.22.37.22.59,0,.24-.1.46-.27.61-.16.14-.36.22-.57.22-.05,0-.31.02-.77.04-.5.03-.89.05-1.17.05-.49,0-.88-.02-1.2-.07-.59-.11-.99-.35-1.2-.73-.06-.1-.11-.22-.15-.37-.4.41-.84.72-1.3.93-.38.17-.75.25-1.12.25Zm.48-10.65h-.02c-.34.02-.73.51-1.09,1.34-.42.96-.67,2.13-.76,3.46-.09,1.32.02,2.34.3,3.04.22.56.49.92.78,1.06.14.06.36.13.75-.03.31-.14.64-.41.97-.79.31-.36.56-.78.73-1.25-.03-.78-.04-2.23-.04-4.3,0-.31,0-.62.02-.94-.88-1.42-1.43-1.59-1.64-1.59Z"/>
      <path class="cls-2" d="m82.15,27.72c-.22,0-.42-.08-.58-.22-.17-.15-.27-.37-.27-.6-.04-.94-.06-2.43-.05-4.4h-.98c-1.18,0-2.12-.02-2.82-.05l-1.53-.21c-.32-.15-.43-.34-.49-.47-.07-.1-.1-.27-.08-.45l.04-.18c.02-.07.05-.13.09-.18.02-.03.04-.05.06-.08.04-.09.1-.19.18-.29l1.21-1.75c.04-.07.08-.14.1-.17.99-1.52,1.8-2.83,2.43-3.92,1.3-2.27,1.65-3.3,1.72-3.76.04-.22.15-.41.32-.55.19-.15.41-.21.65-.17l.21.06c.39.16.58.47.55.86h0c-.04.55-.07,1.16-.08,1.82,0,.67,0,1.22,0,1.64,0,.42.02,1.08.05,1.96.02.88.04,1.46.06,1.74.01.68.02,1.5.02,2.46.97-.01,1.67-.03,2.08-.04h0c.24,0,.45.08.61.22.18.16.27.38.27.61,0,.22-.08.42-.22.58-.16.18-.37.27-.6.27-.42.01-1.14.03-2.15.04,0,1.97,0,3.39.05,4.34,0,.25-.07.46-.22.62-.16.18-.38.27-.61.27Zm.15-.85h0s0,0,0,0Zm-4.67-6.1c.67.03,1.55.04,2.65.04h.98c0-.96,0-1.77-.02-2.43-.03-1.32-.06-2.39-.08-3.21-.08.14-.16.28-.25.43-.62,1.1-1.44,2.42-2.43,3.94l-.07.08s-.07.08-.13.17l-.65.98Z"/>
      <path class="cls-2" d="m90.68,28.07c-.09,0-.17,0-.26-.01-1.34-.12-2.34-1.04-2.99-2.73-.47-1.21-.77-2.86-.9-4.91-.11-1.42-.12-3.18-.05-5.22,0-.4.02-.88.05-1.42l.04-1.36c.01-.36.02-.65.02-.87s.09-.43.25-.59c.33-.33.86-.33,1.19,0,.16.16.25.37.25.59s0,.54-.02.91l-.05,1.36c-.03.56-.05,1.03-.07,1.44-.06,1.97-.04,3.68.04,5.08.13,1.88.4,3.36.81,4.38.4,1.07.91,1.61,1.56,1.67.16.01.63.06,1.14-.84.3-.51.54-1.22.75-2.12.61-2.59.78-6.57.51-11.83,0-.23.07-.42.2-.59.28-.35.82-.39,1.18-.1.2.16.3.38.3.62.27,5.4.09,9.54-.54,12.26-.25,1.06-.57,1.93-.94,2.59-.78,1.37-1.74,1.7-2.48,1.7Z"/>
    </g>
    <path class="cls-2" d="m96.73,13.18c-.03-.47-.07-.94-.1-1.41-.01-.28-.06-2.38,1.64-3.92,1.75-1.57,3.89-1.24,4.15-1.2.33-.01.55.15.54.53.17,3.63-2.61,6.31-6.23,6Z"/>
    <g>
      <rect class="cls-1" x="0" y="0" width="32.36" height="33.34" rx="6.98" ry="6.98"/>
      <g>
        <path class="cls-2" d="m30.86,5.12c-.2.43-.36.96-.37,1.38.19,1.81-.15,4.81-2.13,6.82-2.34,2.39-4.87,4.62-7.25,6.99-.6.53-1.44,1.58-2.24,1.02-2.04-1.8,1.52-3.69,2.57-5,2.33-2.7-2.39-4.49-4.52-3.28-3.37,1.18-4.84,3.37-4.93,6.9.02,1.12-2.08,2.04-2.1.47.24-2.24-.24-4.89,1.56-6.59,1.64-1.62,3.29-3.23,4.97-4.81,3.22-2.6,7.35-2.3,9.33-6.09"/>
        <path class="cls-2" d="m8.44,16.16c-.07.36-.25,1.44-.32,2.56,0,0-.06,1.02.1,1.8,0,.03.26,1,.73,1.41.96.85,3.17.76,3.96-.38,1.01-1.46.33-3.41,1.25-4.84,1.37-1.54,4.12-3.6,5.82-1.41.06.08,0,.33-.08.43-.73.79-1.55,1.5-2.28,2.28-2.72,3.73,1.76,7.64,5.62,2.35.03.02.05.03.08.05.17.66.35,1.69.19,2.92-.48,3.76-3.61,5.73-3.89,5.9-.39.24-2.9,1.7-5.94,1.02-.97-.22-2.73-.62-3.46-2-.82-1.55.43-2.87-.5-4-.73-.88-1.76-.41-2.81-1.55,0,0-.71-.76-.9-1.85-.3-1.65.68-3.48,2.43-4.69Z"/>
        <g>
          <path class="cls-2" d="m5.58,24.41c-.25.1-.5.2-.75.29-.15.05-1.29.43-2.42-.24-1.15-.69-1.33-1.92-1.35-2.07-.06-.18,0-.33.2-.39,1.95-.7,3.89.37,4.32,2.4Z"/>
          <path class="cls-2" d="m7.07,25.05c.5-.22,1.37-.91,1.7-.17.16.37.09.52-.34.74-1.12.5-2.18,1.14-2.96,2.12-.15.18-.28.18-.42.01-1.29-1.16,1.14-2.22,2.01-2.7Z"/>
        </g>
      </g>
    </g>
  </g>
</svg>