<?xml version="1.0" encoding="UTF-8"?>
<svg id="Calque_2" data-name="Calque 2" xmlns="http://www.w3.org/2000/svg" viewBox="0 0 32.36 33.34">
  <defs>
    <style>
      .cls-1 {
        fill: #68572e;
      }

      .cls-1, .cls-2 {
        stroke-width: 0px;
      }

      .cls-2 {
        fill: #ffd766;
      }
    </style>
  </defs>
  <g id="logo-field4u">
    <g>
      <rect class="cls-1" x="0" y="0" width="32.36" height="33.34" rx="6.98" ry="6.98"/>
      <g>
        <path class="cls-2" d="m30.86,5.12c-.2.43-.36.96-.37,1.38.19,1.81-.15,4.81-2.13,6.82-2.34,2.39-4.87,4.62-7.25,6.99-.6.53-1.44,1.58-2.24,1.02-2.04-1.8,1.52-3.69,2.57-5,2.33-2.7-2.39-4.49-4.52-3.28-3.37,1.18-4.84,3.37-4.93,6.9.02,1.12-2.08,2.04-2.1.47.24-2.24-.24-4.89,1.56-6.59,1.64-1.62,3.29-3.23,4.97-4.81,3.22-2.6,7.35-2.3,9.33-6.09"/>
        <path class="cls-2" d="m8.44,16.16c-.07.36-.25,1.44-.32,2.56,0,0-.06,1.02.1,1.8,0,.03.26,1,.73,1.41.96.85,3.17.76,3.96-.38,1.01-1.46.33-3.41,1.25-4.84,1.37-1.54,4.12-3.6,5.82-1.41.06.08,0,.33-.08.43-.73.79-1.55,1.5-2.28,2.28-2.72,3.73,1.76,7.64,5.62,2.35.03.02.05.03.08.05.17.66.35,1.69.19,2.92-.48,3.76-3.61,5.73-3.89,5.9-.39.24-2.9,1.7-5.94,1.02-.97-.22-2.73-.62-3.46-2-.82-1.55.43-2.87-.5-4-.73-.88-1.76-.41-2.81-1.55,0,0-.71-.76-.9-1.85-.3-1.65.68-3.48,2.43-4.69Z"/>
        <g>
          <path class="cls-2" d="m5.58,24.41c-.25.1-.5.2-.75.29-.15.05-1.29.43-2.42-.24-1.15-.69-1.33-1.92-1.35-2.07-.06-.18,0-.33.2-.39,1.95-.7,3.89.37,4.32,2.4Z"/>
          <path class="cls-2" d="m7.07,25.05c.5-.22,1.37-.91,1.7-.17.16.37.09.52-.34.74-1.12.5-2.18,1.14-2.96,2.12-.15.18-.28.18-.42.01-1.29-1.16,1.14-2.22,2.01-2.7Z"/>
        </g>
      </g>
    </g>
  </g>
</svg>